# xmcd
#
# Track frame offsets: 
#        150
#        16542
#        32815
#        53554
#        69934
#        82137
#        95432
#        111814
#        128439
#        148869
#        162823
#        176533
#
# Disc length: 2650 seconds
#
# Revision: 0
# Processed by: cddbd v1.5.2PL0 Copyright (c) Steve Scherf et al.
# Submitted via: ExactAudioCopy v0.99pb5
#
DISCID=8f0a580c
DTITLE=Georges Hamel - Au bout de tes rêves
DYEAR=2009
DGENRE=Country
TTITLE0=Mon plus beau souvenir
TTITLE1=Ma prière
TTITLE2=Au bout de tes rêves
TTITLE3=Grand-maman, prends ce train
TTITLE4=Le printemps à ma fenêtre
TTITLE5=Cette chanson d'amour
TTITLE6=Un ange veillera
TTITLE7=Aime ce que tu as
TTITLE8=Le temps va tout arranger
TTITLE9=Les enfants du divorce
TTITLE10=Y a pas si longtemps
TTITLE11=Mon P'tit gars, disait grand-père
EXTD=
EXTT0=
EXTT1=
EXTT2=
EXTT3=
EXTT4=
EXTT5=
EXTT6=
EXTT7=
EXTT8=
EXTT9=
EXTT10=
EXTT11=
PLAYORDER=
